# xmcd
#
# Track frame offsets:
#	182
#	23737
#	46997
#	69347
#	87255
#	107452
#	125532
#	146862
#	166087
#	185152
#
# Disc length: 2737 seconds
#
# Revision: 0
# Processed by: cddbd v1.5.1PL0 Copyright (c) Steve Scherf et al.
# Submitted via: EasyCDDAExtractor 7.5.0.1
#
DISCID=830aaf0a
DTITLE=Lynn White - The New Me
DYEAR=1990
DGENRE=R&B
TTITLE0=My Sex Machine
TTITLE1=I've Never Known A Man
TTITLE2=Something Else Is Going On
TTITLE3=Get Yourself Together
TTITLE4=I Believe In You (You Believe In Me)
TTITLE5=Too Much Woman For Me
TTITLE6=If I Could Open Up My Heart
TTITLE7=Draw The Line
TTITLE8=Running To Me
TTITLE9=May The Best Man Win (Featuring J. Blackfoot)
EXTD=
EXTT0=
EXTT1=
EXTT2=
EXTT3=
EXTT4=
EXTT5=
EXTT6=
EXTT7=
EXTT8=
EXTT9=
PLAYORDER=
